# xmcd
# 
# Track frame offsets:
#     182
#     33102
#     54237
#     76750
#     95730
#     126857
#     144475
#     160557
#     183702
#     206450
#     231167
# 
# Disc length: 3280
# 
# Revision: 4
# Processed by: cddbd v1.5.1PL0 Copyright (c) Steve Scherf et al.
# Submitted via: BonkEnc v1.0beta2
# 
DISCID=870cce0b
DTITLE=Chris Rea - Auberge
DYEAR=1991
DGENRE=Blues
TTITLE0=Auberge
TTITLE1=Gone Fishing
TTITLE2=You're Not a Number
TTITLE3=Heaven
TTITLE4=Set Me Free
TTITLE5=Red Shoes
TTITLE6=Sing a Song Of Love To Me
TTITLE7=Every Second Counts
TTITLE8=Looking For the Summer
TTITLE9=And You My Love
TTITLE10=The Mention Of Your Name
EXTD=YEAR: 1991 ID3G:   0
EXTT0=
EXTT1=
EXTT2=
EXTT3=
EXTT4=
EXTT5=
EXTT6=
EXTT7=
EXTT8=
EXTT9=
EXTT10=
PLAYORDER=
